# File created by Blade
# Date/Time:  Thu Jan 22 19:01:15 2015
# Frame Rate: 120.000 fps
#------------------------------------------------------
:FULLY-SPECIFIED
:DEGREES
2563
root -3.344070 33.244180 -0.074111 9.155260 1.635477 2.892347
RightUpLeg -1.298010 -8.330136 -1.004290
RightLeg -0.504087 -0.000000 0.000000
RightFoot -11.240885 -3.952732 3.264369
RightToeBase 5.291362 -0.000000 -0.000000
LeftUpLeg -2.863253 2.029168 1.897418
LeftLeg 1.388474 -0.000000 -0.000000
LeftFoot -9.250523 0.541639 -10.238397
LeftToeBase 7.204639 -0.000000 -0.000000
Spine -15.363672 2.447021 -1.396399
RightShoulder -6.582983 -29.415772 -8.520686
RightArm 139.162351 -35.044189 -47.732219
RightForeArm -14.950282 0.000000 115.069105
RightHand 19.882011 0.000000 -16.075220
RightHandThumb1 -24.326973 -0.000000 -32.862282
LeftShoulder -23.311618 -21.234195 55.120504
LeftArm 102.319705 -41.631484 -78.641698
LeftForeArm -13.756753 -0.000000 151.756140
LeftHand 16.166283 0.000000 5.980428
LeftHandThumb1 -26.253704 0.000000 33.147579
Head 16.665996 -4.366949 15.164086
2564
root -3.348966 33.243102 -0.067774 9.149187 1.636544 2.884636
RightUpLeg -1.260330 -8.335061 -0.989668
RightLeg -0.548640 -0.000000 0.000000
RightFoot -11.225320 -3.947824 3.258496
RightToeBase 5.292479 -0.000000 -0.000000
LeftUpLeg -2.843369 2.008475 1.915046
LeftLeg 1.383722 -0.000000 -0.000000
LeftFoot -9.261168 0.557840 -10.234892
LeftToeBase 7.189953 -0.000000 -0.000000
Spine -15.388244 2.425438 -1.412276
RightShoulder -6.565978 -29.380550 -8.544445
RightArm 139.518945 -34.950472 -48.078102
RightForeArm -15.979814 -0.000000 114.967140
RightHand 19.797853 0.000000 -17.731513
RightHandThumb1 -24.326973 -0.000000 -32.862282
LeftShoulder -23.325887 -21.220399 55.129958
LeftArm 102.286028 -41.674285 -78.576622
LeftForeArm -13.824758 -0.000000 151.753669
LeftHand 16.252360 0.000000 6.137196
LeftHandThumb1 -26.253704 0.000000 33.147579
Head 16.594033 -4.398212 15.124488
2565
root -3.353497 33.242255 -0.061596 9.141600 1.638295 2.883259
RightUpLeg -1.242637 -8.345191 -0.986125
RightLeg -0.544883 -0.000000 0.000000
RightFoot -11.232633 -3.917780 3.281632
RightToeBase 5.262182 -0.000000 -0.000000
LeftUpLeg -2.826141 1.998488 1.925155
LeftLeg 1.384978 -0.000000 -0.000000
LeftFoot -9.274180 0.568745 -10.225891
LeftToeBase 7.241989 -0.000000 -0.000000
Spine -15.407922 2.398971 -1.437494
RightShoulder -6.554590 -29.369378 -8.556596
RightArm 139.538696 -34.961809 -48.103505
RightForeArm -16.070953 -0.000000 114.954802
RightHand 19.790202 -0.000000 -17.915085
RightHandThumb1 -24.326973 -0.000000 -32.862282
LeftShoulder -23.348107 -21.210825 55.143290
LeftArm 102.239865 -41.721840 -78.503691
LeftForeArm -13.886189 -0.000000 151.747917
LeftHand 16.331869 -0.000000 6.305216
LeftHandThumb1 -26.253704 0.000000 33.147579
Head 16.518859 -4.412340 15.082548
2566
root -3.358531 33.241649 -0.056073 9.138085 1.631211 2.877238
RightUpLeg -1.226576 -8.332407 -0.976438
RightLeg -0.552416 -0.000000 0.000000
RightFoot -11.237915 -3.917931 3.286328
RightToeBase 5.275902 -0.000000 -0.000000
LeftUpLeg -2.812678 2.002363 1.938815
LeftLeg 1.386694 -0.000000 -0.000000
LeftFoot -9.287245 0.573444 -10.253249
LeftToeBase 7.242048 -0.000000 -0.000000
Spine -15.432481 2.386905 -1.462526
RightShoulder -6.545829 -29.361429 -8.555605
RightArm 139.514279 -34.977870 -48.097263
RightForeArm -16.021245 -0.000000 114.969718
RightHand 19.752621 0.000000 -17.872220
RightHandThumb1 -24.326973 -0.000000 -32.862282
LeftShoulder -23.361447 -21.193204 55.133496
LeftArm 102.240964 -41.765517 -78.480523
LeftForeArm -14.012939 -0.000000 151.723420
LeftHand 16.384744 -0.000000 6.379351
LeftHandThumb1 -26.253704 0.000000 33.147579
Head 16.439722 -4.429435 15.057042
2567
root -3.363440 33.240748 -0.050355 9.128292 1.617813 2.873898
RightUpLeg -1.201799 -8.326296 -0.968494
RightLeg -0.566590 -0.000000 0.000000
RightFoot -11.241161 -3.916679 3.277907
RightToeBase 5.288350 -0.000000 -0.000000
LeftUpLeg -2.792299 2.015827 1.949689
LeftLeg 1.386644 -0.000000 -0.000000
LeftFoot -9.299887 0.572932 -10.247504
LeftToeBase 7.265513 -0.000000 -0.000000
Spine -15.444976 2.388825 -1.491819
RightShoulder -6.546943 -29.342203 -8.561506
RightArm 139.514047 -34.976002 -48.097041
RightForeArm -16.002315 0.000000 114.972666
RightHand 19.759231 0.000000 -17.853566
RightHandThumb1 -24.326973 -0.000000 -32.862282
LeftShoulder -23.383867 -21.152904 55.116821
LeftArm 102.302234 -41.812511 -78.545839
LeftForeArm -14.167699 -0.000000 151.693200
LeftHand 16.439927 -0.000000 6.358733
LeftHandThumb1 -26.253704 0.000000 33.147579
Head 16.358967 -4.450192 15.024190
2568
root -3.370089 33.239909 -0.045603 9.122758 1.611784 2.864341
RightUpLeg -1.179555 -8.338531 -0.950682
RightLeg -0.588529 -0.000000 0.000000
RightFoot -11.223638 -3.883154 3.261875
RightToeBase 5.263066 -0.000000 -0.000000
LeftUpLeg -2.780777 2.014525 1.971388
LeftLeg 1.394894 -0.000000 -0.000000
LeftFoot -9.309393 0.575232 -10.269521
LeftToeBase 7.253659 -0.000000 -0.000000
Spine -15.465236 2.411965 -1.522986
RightShoulder -6.578890 -29.294189 -8.555238
RightArm 139.553871 -34.995171 -48.112972
RightForeArm -15.981225 0.000000 114.968498
RightHand 19.783189 0.000000 -17.867413
RightHandThumb1 -24.326973 -0.000000 -32.862282
LeftShoulder -23.375576 -21.165010 55.085262
LeftArm 102.357606 -41.868917 -78.600345
LeftForeArm -14.343428 -0.000000 151.662794
LeftHand 16.434168 -0.000000 6.344877
LeftHandThumb1 -26.253704 0.000000 33.147579
Head 16.285260 -4.485176 15.000965
2569
root -3.373737 33.239256 -0.040602 9.122361 1.591974 2.863798
RightUpLeg -1.168996 -8.332709 -0.945627
RightLeg -0.598549 -0.000000 0.000000
RightFoot -11.226352 -3.883800 3.247898
RightToeBase 5.265952 -0.000000 -0.000000
LeftUpLeg -2.766556 2.041271 1.973111
LeftLeg 1.391076 -0.000000 -0.000000
LeftFoot -9.318231 0.579482 -10.274899
LeftToeBase 7.226415 -0.000000 -0.000000
Spine -15.491840 2.436527 -1.559126
RightShoulder -6.602646 -29.261013 -8.552154
RightArm 139.580708 -34.991463 -48.135945
RightForeArm -15.960807 -0.000000 114.981114
RightHand 19.777139 -0.000000 -17.881962
RightHandThumb1 -24.326973 -0.000000 -32.862282
LeftShoulder -23.376814 -21.134432 55.051649
LeftArm 102.452357 -41.926201 -78.691007
LeftForeArm -14.472854 -0.000000 151.639055
LeftHand 16.498245 -0.000000 6.309271
LeftHandThumb1 -26.253704 0.000000 33.147579
Head 16.215929 -4.481066 14.969231
